<?xml version="1.0" encoding="UTF-8"?>
<svg id="Ebene_1" data-name="Ebene 1" xmlns="http://www.w3.org/2000/svg" viewBox="0 0 1269.66 674.13">
  <path d="m4.83,11c-6.43,0-6.45,10,0,10s6.45-10,0-10Z"/>
  <path d="m74.83,144c-6.43,0-6.45,10,0,10s6.45-10,0-10Z"/>
  <path d="m9.83,305c-6.43,0-6.45,10,0,10s6.45-10,0-10Z"/>
  <path d="m314.83,71c-6.43,0-6.45,10,0,10s6.45-10,0-10Z"/>
  <path d="m299.83,436c-6.43,0-6.45,10,0,10s6.45-10,0-10Z"/>
  <path d="m115.83,574c-6.43,0-6.45,10,0,10s6.45-10,0-10Z"/>
  <path d="m1095.83,0c-6.43,0-6.45,10,0,10s6.45-10,0-10Z"/>
  <path d="m726.83,570c-6.43,0-6.45,10,0,10s6.45-10,0-10Z"/>
  <path d="m614.83,206c-6.43,0-6.45,10,0,10s6.45-10,0-10Z"/>
  <path d="m61.83,475c-6.43,0-6.45,10,0,10s6.45-10,0-10Z"/>
  <path d="m26.83,659c-6.43,0-6.45,10,0,10s6.45-10,0-10Z"/>
  <path d="m358.16,664.13c-.65-3.66-2.89-7.32-4.35-10.69-1.79-4.12-3.58-8.23-5.37-12.35-1.79-4.12-3.58-8.23-5.37-12.35-1.53-3.52-2.81-8.28-5.05-11.4-4.86-6.8-11.23-.06-15.29,3.82-11.15,10.67-20.67,23.02-28.4,36.37-.49.52-.84,1.15-1.06,1.83-.14.24-.28.48-.42.72-2.91,5.23,4.34,9.96,7.89,6.08,8.11.17,16.17.91,24.15,2.4,4.53.84,9.02,1.89,13.45,3.13,3.26.91,6.52,2.31,9.95,2.43,5.87.21,10.99-3.68,9.87-9.99Zm-26.34-36.33c-.29-.31-.6-.55-.92-.76.13-.14.26-.29.4-.44.17.4.35.8.52,1.2Z"/>
  <path d="m1257.83,246c-6.43,0-6.45,10,0,10s6.45-10,0-10Z"/>
  <path d="m1225.83,248c-6.43,0-6.45,10,0,10s6.45-10,0-10Z"/>
  <path d="m1189.83,250c-6.43,0-6.45,10,0,10s6.45-10,0-10Z"/>
  <path d="m1157.83,249c-6.43,0-6.45,10,0,10s6.45-10,0-10Z"/>
  <path d="m1154.83,281c-6.43,0-6.45,10,0,10s6.45-10,0-10Z"/>
  <path d="m1185.83,275c-6.43,0-6.45,10,0,10s6.45-10,0-10Z"/>
  <path d="m1221.83,273c-6.43,0-6.45,10,0,10s6.45-10,0-10Z"/>
  <path d="m1264.83,275c-6.43,0-6.45,10,0,10s6.45-10,0-10Z"/>
  <path d="m1261.83,305c-6.43,0-6.45,10,0,10s6.45-10,0-10Z"/>
  <path d="m1234.83,304c-6.43,0-6.45,10,0,10s6.45-10,0-10Z"/>
  <path d="m1207.83,307c-6.43,0-6.45,10,0,10s6.45-10,0-10Z"/>
  <path d="m1165.83,312c-6.43,0-6.45,10,0,10s6.45-10,0-10Z"/>
  <path d="m1038.43,532.93c-5.34,2.68-10.72,5.28-16.13,7.8-6.26-4.42-12.53-8.85-18.79-13.27-5.27-3.72-10.27,4.95-5.05,8.63,4.45,3.14,8.9,6.29,13.35,9.43-2.48,1.11-4.96,2.2-7.46,3.28-5.89,2.54-.81,11.16,5.05,8.63,3.96-1.71,7.9-3.47,11.83-5.26,4.12,2.91,8.24,5.82,12.36,8.73,5.27,3.72,10.27-4.95,5.05-8.63-2.33-1.65-4.67-3.3-7-4.94,3.96-1.89,7.91-3.8,11.83-5.77,5.75-2.89.7-11.51-5.05-8.63Z"/>
  <path d="m1105.47,520.32c-3.23-1.39-6.24.62-7.28,3.13-9.98-2.56-21.1-1.4-29.44,4.89-12.72,9.59-4.69,23.83,6.97,29.76,10.89,5.54,26.97,11.09,34.49-2.3,3.08-5.48,3.86-12.61,3.95-18.8.1-6.69-2.07-13.83-8.69-16.69Zm-3.58,29.86c-3.88,8.11-15.34,2.22-21.12-.72-3.08-1.57-6.5-3.59-8.11-6.8-2.1-4.19,2.06-6.76,5.44-8.28,7.71-3.46,16.65-2.79,24.01,1.16.79.43,1.57.62,2.31.63.42,4.91-1.05,10.9-2.54,14Z"/>
  <path d="m1168.22,519.49c-8.07,3.72-15.59,8.31-22.52,13.65-4.3-4.77-8.41-9.72-12.28-14.86-3.82-5.08-12.51-.1-8.63,5.05,4.21,5.6,8.65,11,13.3,16.2-5.5,5.01-10.57,10.54-15.15,16.52-3.91,5.1,4.77,10.09,8.63,5.05,3.99-5.2,8.44-9.97,13.26-14.32,4.48,4.61,9.15,9.03,14.03,13.27,4.84,4.2,11.94-2.85,7.07-7.07-4.62-4.01-9.08-8.19-13.37-12.54,6.42-4.8,13.37-8.92,20.71-12.3,5.84-2.69.76-11.31-5.05-8.63Z"/>
  <path d="m1235.26,512.91c-2.99,1.42-3.1,4.39-1.71,6.57-10.3-1.89-21.23-2.34-30.08,3.96-5.31,3.78-9.07,9.24-12.44,14.73-3.24,5.27-4.26,10.73.33,15.58,8.23,8.69,22.11,11.46,33.41,8.52,11.4-2.96,20.11-12,23.71-23.07,2.86-8.79,2.27-33.64-13.23-26.29Zm-1.67,32.74c-6.3,7.03-16.23,9.3-25.18,6.73-2.74-.79-10.5-3.54-9.95-7.16.3-1.97,3.17-5.19,4.29-6.76,1.45-2.04,3.03-4.02,4.94-5.66,8.46-7.29,20.74-4.4,30.55-2.12.66.15,1.27.18,1.84.11-.1,1.03-.26,2.06-.5,3.08-1,4.36-3,8.45-5.99,11.79Z"/>
</svg>