<?xml version="1.0" encoding="UTF-8"?>
<svg id="Capa_1" data-name="Capa 1" xmlns="http://www.w3.org/2000/svg" viewBox="0 0 799.99 476.41">
  <defs>
    <style>
      .cls-1 {
        fill: #fff;
      }
    </style>
  </defs>
  <path class="cls-1" d="m798.55,462.41l-225.17-350.74c-2.15-3.51-6.49-5.21-10.55-3.89,0,0,0,0,0,0-.15.05-.3.1-.45.16-1.8.68-3.25,1.88-4.27,3.37l-79.54,113.92L336.79,4.36c-1.81-2.97-5.25-4.75-8.88-4.29-.25.03-.51.07-.76.13-2.17.46-4.01,1.67-5.3,3.31,0,0,0,.01-.01.01,0,0,0,.01-.01.01,0,0-.01.01-.02.02h0s-.01.02-.01.02h0s-.02.03-.03.04c-.04.05-.08.1-.11.15,0,0-.01.01-.01.02,0,0,0,.01-.01.02,0,0-.01.01-.01.02,0,0,0,.01-.01.02,0,0,0,.01-.01.02h0S1.64,462.11,1.64,462.11c-1.94,2.78-2.17,6.4-.61,9.41,1.57,3,4.67,4.89,8.06,4.89h395.89c.11,0,.21,0,.32,0h285.78c.07,0,.14,0,.2,0h99.62c3.32,0,6.39-1.81,7.98-4.73,1.59-2.92,1.47-6.47-.33-9.27ZM335,34.2c6.45,0,6.43,10,0,10s-6.43-10,0-10ZM26.53,458.22L323.72,32.57l70.7,425.64H26.53Zm386.33,0L345.24,51.15l124.75,194.34c.17.36.36.7.57,1.04l135.9,211.69h-193.61Zm215.31,0l-138.96-216.46,73.8-105.7,115.16,322.15h-50.01Zm69.32,0l-96.48-269.89,173.26,269.89h-76.78Z"/>
</svg>